<svg width="1200" height="300" viewBox="0 0 1200 300" xmlns="http://www.w3.org/2000/svg"><mask id="satori_om-id"><rect x="0" y="0" width="1200" height="300" fill="#fff"/></mask><rect x="0" y="0" width="1200" height="300" fill="#fafafa"/><path fill="rgb(26,26,26)" d="M396.0 132.0L395.5 137.5C392.6 133.2 387.1 130.5 380.0 130.5C363.5 130.5 353.9 143.0 352.4 157.6C350.8 172.0 358.5 184.3 375.0 184.3C383.7 184.3 391.7 179.4 394.6 172.6C397.4 190.7 432.8 189.3 435.2 153.7C437.4 125.8 415.6 103.9 385.8 103.9C353.5 103.9 327.0 126.9 325.6 156.4C323.6 197.3 361.2 219.2 405.1 202.7L402.3 190.7C366.1 204.1 338.7 188.9 340.1 156.4C341.1 133.7 360.4 116.3 385.2 116.3C407.4 116.3 423.2 132.7 422.3 153.9C421.6 170.3 411.4 177.4 406.8 172.0C404.6 170.3 404.5 164.8 404.9 160.1L407.2 132.0ZM366.5 157.6C367.2 148.8 371.8 141 381.3 141C390.8 141 394.1 148.9 393.3 157.6C392.4 166.1 387.8 174.0 378.4 174.0C368.9 174.0 365.6 166.2 366.5 157.6ZM483.5 148.6L500.2 147.8C498.0 134.0 486.7 125.3 470.7 125.3C452.6 125.3 441.5 133.4 441.5 146.8C441.5 159.6 452.9 163.8 469.5 167.1C476.4 168.6 483.8 169.7 484.0 176.2C484.0 181.7 477.2 183.8 471.8 183.8C463.2 183.8 458.0 179.4 456.7 172.4L439.9 173.3C441.0 187.6 453.5 196.3 472.1 196.3C487.9 196.3 501.0 190.0 501.0 176.6C501.0 163.5 490.6 158.7 472.2 155.6C465.5 154.4 458.8 152.0 458.6 146.5C458.5 141.1 463.5 137.8 469.8 137.8C476.2 137.8 482.3 141.9 483.5 148.6ZM508.0 214.0L524.7 214.0L524.7 185.5C528.6 192.6 535.4 196.3 544.5 196.3C564.1 196.3 573.6 180.3 573.6 160.8C573.6 141.4 564.1 125.4 544.5 125.4C534.9 125.4 527.9 129.4 524.2 136.6L523.8 126.9L508.0 126.9ZM523.4 160.8C523.4 149.3 528.4 138.7 539.9 138.7C551.3 138.7 556.4 149.3 556.4 160.8C556.4 172.5 551.4 183.0 539.9 183.0C528.4 183.0 523.4 172.5 523.4 160.8ZM577.9 160.8C577.9 182.3 591.2 196.3 611.5 196.3C626.2 196.3 638.5 188.2 642.4 175.2L625.5 173.9C623.1 179.8 617.6 183.2 611.5 183.2C601.9 183.2 596.0 176.6 595.2 165.3L643.5 165.3L643.3 161.2C643.1 137.2 628.9 125.4 611.5 125.4C591.2 125.4 577.9 139.3 577.9 160.8ZM595.5 154.3C596.7 144.5 602.5 138.4 611.5 138.4C618.6 138.4 625.0 142.8 626.3 154.3ZM695.8 151.9L712.8 151.0C711.0 135.1 697.6 125.4 681.3 125.4C661.1 125.4 647.8 139.3 647.8 160.8C647.8 182.3 661.1 196.3 681.3 196.3C698.1 196.3 711.4 186.2 713.3 169.8L696.2 169.0C694.9 178.1 688.9 182.9 681.3 182.9C670.8 182.9 664.8 174.8 664.8 160.8C664.8 146.9 670.8 138.8 681.3 138.8C688.5 138.8 694.5 143.4 695.8 151.9ZM724.0 111.6L724.0 126.9L713.3 126.9L713.3 139.7L724.0 139.7L724.0 173.9C724.0 187.7 731.5 194.8 745.5 194.8L758.5 194.8L758.5 181.8L748.3 181.8C743.2 181.8 740.6 179.1 740.6 173.9L740.6 139.7L758.5 139.7L758.5 126.9L740.6 126.9L740.6 111.6ZM765.3 126.9L765.3 194.8L782.0 194.8L782.0 156.1C782.0 145.2 786.4 139.8 797.3 139.8L803.8 139.8L803.8 126.9L797.4 126.9C788.7 126.9 783.7 131.3 781.2 140.1L780.8 126.9ZM806.9 147.5L823.8 148.6C825.5 141.1 830.1 137.3 837.2 137.3C846.1 137.3 850.4 142.3 850.6 152.5L831.5 156.4C815.6 159.6 805.9 163.8 805.9 177.0C805.9 189 816.6 196.3 830.2 196.3C842.0 196.3 849.7 191.2 852.7 184.5C854.0 195.0 864.9 194.9 870.1 194.9L874.0 194.8L874.0 182.7L871.4 182.7C868.9 182.7 867.2 181.7 867.2 177.7L867.2 154.6C867.2 135.5 856.8 125.4 837.2 125.4C820.6 125.4 809.6 133.6 806.9 147.5ZM822.9 176.5C822.9 168.6 829.4 167.8 838.0 166.1L850.8 163.8L850.8 164.6C850.8 178.0 843.9 184.6 834.7 184.6C826.8 184.6 822.9 181.1 822.9 176.5Z "/></svg>