<svg width="1200" height="400" viewBox="0 0 1200 400" xmlns="http://www.w3.org/2000/svg"><mask id="satori_om-id"><rect x="0" y="0" width="1200" height="400" fill="#fff"/></mask><rect x="0" y="0" width="1200" height="400" fill="#fafafa"/><path fill="rgb(26,26,26)" d="M396.0 182.0L395.5 187.5C392.6 183.2 387.1 180.5 380.0 180.5C363.5 180.5 353.9 193.0 352.4 207.6C350.8 222.0 358.5 234.3 375.0 234.3C383.7 234.3 391.7 229.4 394.6 222.6C397.4 240.7 432.8 239.3 435.2 203.7C437.4 175.8 415.6 153.9 385.8 153.9C353.5 153.9 327.0 176.9 325.6 206.4C323.6 247.3 361.2 269.2 405.1 252.7L402.3 240.7C366.1 254.1 338.7 238.9 340.1 206.4C341.1 183.7 360.4 166.3 385.2 166.3C407.4 166.3 423.2 182.7 422.3 203.9C421.6 220.3 411.4 227.4 406.8 222.0C404.6 220.3 404.5 214.8 404.9 210.1L407.2 182.0ZM366.5 207.6C367.2 198.8 371.8 191 381.3 191C390.8 191 394.1 198.9 393.3 207.6C392.4 216.1 387.8 224.0 378.4 224.0C368.9 224.0 365.6 216.2 366.5 207.6ZM483.5 198.6L500.2 197.8C498.0 184.0 486.7 175.3 470.7 175.3C452.6 175.3 441.5 183.4 441.5 196.8C441.5 209.6 452.9 213.8 469.5 217.1C476.4 218.6 483.8 219.7 484.0 226.2C484.0 231.7 477.2 233.8 471.8 233.8C463.2 233.8 458.0 229.4 456.7 222.4L439.9 223.3C441.0 237.6 453.5 246.3 472.1 246.3C487.9 246.3 501.0 240.0 501.0 226.6C501.0 213.5 490.6 208.7 472.2 205.6C465.5 204.4 458.8 202.0 458.6 196.5C458.5 191.1 463.5 187.8 469.8 187.8C476.2 187.8 482.3 191.9 483.5 198.6ZM508.0 264.0L524.7 264.0L524.7 235.5C528.6 242.6 535.4 246.3 544.5 246.3C564.1 246.3 573.6 230.3 573.6 210.8C573.6 191.4 564.1 175.4 544.5 175.4C534.9 175.4 527.9 179.4 524.2 186.6L523.8 176.9L508.0 176.9ZM523.4 210.8C523.4 199.3 528.4 188.7 539.9 188.7C551.3 188.7 556.4 199.3 556.4 210.8C556.4 222.5 551.4 233.0 539.9 233.0C528.4 233.0 523.4 222.5 523.4 210.8ZM577.9 210.8C577.9 232.3 591.2 246.3 611.5 246.3C626.2 246.3 638.5 238.2 642.4 225.2L625.5 223.9C623.1 229.8 617.6 233.2 611.5 233.2C601.9 233.2 596.0 226.6 595.2 215.3L643.5 215.3L643.3 211.2C643.1 187.2 628.9 175.4 611.5 175.4C591.2 175.4 577.9 189.3 577.9 210.8ZM595.5 204.3C596.7 194.5 602.5 188.4 611.5 188.4C618.6 188.4 625.0 192.8 626.3 204.3ZM695.8 201.9L712.8 201.0C711.0 185.1 697.6 175.4 681.3 175.4C661.1 175.4 647.8 189.3 647.8 210.8C647.8 232.3 661.1 246.3 681.3 246.3C698.1 246.3 711.4 236.2 713.3 219.8L696.2 219.0C694.9 228.1 688.9 232.9 681.3 232.9C670.8 232.9 664.8 224.8 664.8 210.8C664.8 196.9 670.8 188.8 681.3 188.8C688.5 188.8 694.5 193.4 695.8 201.9ZM724.0 161.6L724.0 176.9L713.3 176.9L713.3 189.7L724.0 189.7L724.0 223.9C724.0 237.7 731.5 244.8 745.5 244.8L758.5 244.8L758.5 231.8L748.3 231.8C743.2 231.8 740.6 229.1 740.6 223.9L740.6 189.7L758.5 189.7L758.5 176.9L740.6 176.9L740.6 161.6ZM765.3 176.9L765.3 244.8L782.0 244.8L782.0 206.1C782.0 195.2 786.4 189.8 797.3 189.8L803.8 189.8L803.8 176.9L797.4 176.9C788.7 176.9 783.7 181.3 781.2 190.1L780.8 176.9ZM806.9 197.5L823.8 198.6C825.5 191.1 830.1 187.3 837.2 187.3C846.1 187.3 850.4 192.3 850.6 202.5L831.5 206.4C815.6 209.6 805.9 213.8 805.9 227.0C805.9 239 816.6 246.3 830.2 246.3C842.0 246.3 849.7 241.2 852.7 234.5C854.0 245.0 864.9 244.9 870.1 244.9L874.0 244.8L874.0 232.7L871.4 232.7C868.9 232.7 867.2 231.7 867.2 227.7L867.2 204.6C867.2 185.5 856.8 175.4 837.2 175.4C820.6 175.4 809.6 183.6 806.9 197.5ZM822.9 226.5C822.9 218.6 829.4 217.8 838.0 216.1L850.8 213.8L850.8 214.6C850.8 228.0 843.9 234.6 834.7 234.6C826.8 234.6 822.9 231.1 822.9 226.5Z "/></svg>