<svg width="1200" height="350" viewBox="0 0 1200 350" xmlns="http://www.w3.org/2000/svg"><mask id="satori_om-id"><rect x="0" y="0" width="1200" height="350" fill="#fff"/></mask><rect x="0" y="0" width="1200" height="350" fill="#fafafa"/><path fill="rgb(26,26,26)" d="M396.0 157.0L395.5 162.5C392.6 158.2 387.1 155.5 380.0 155.5C363.5 155.5 353.9 168.0 352.4 182.6C350.8 197.0 358.5 209.3 375.0 209.3C383.7 209.3 391.7 204.4 394.6 197.6C397.4 215.7 432.8 214.3 435.2 178.7C437.4 150.8 415.6 128.9 385.8 128.9C353.5 128.9 327.0 151.9 325.6 181.4C323.6 222.3 361.2 244.2 405.1 227.7L402.3 215.7C366.1 229.1 338.7 213.9 340.1 181.4C341.1 158.7 360.4 141.3 385.2 141.3C407.4 141.3 423.2 157.7 422.3 178.9C421.6 195.3 411.4 202.4 406.8 197.0C404.6 195.3 404.5 189.8 404.9 185.1L407.2 157.0ZM366.5 182.6C367.2 173.8 371.8 166 381.3 166C390.8 166 394.1 173.9 393.3 182.6C392.4 191.1 387.8 199.0 378.4 199.0C368.9 199.0 365.6 191.2 366.5 182.6ZM483.5 173.6L500.2 172.8C498.0 159.0 486.7 150.3 470.7 150.3C452.6 150.3 441.5 158.4 441.5 171.8C441.5 184.6 452.9 188.8 469.5 192.1C476.4 193.6 483.8 194.7 484.0 201.2C484.0 206.7 477.2 208.8 471.8 208.8C463.2 208.8 458.0 204.4 456.7 197.4L439.9 198.3C441.0 212.6 453.5 221.3 472.1 221.3C487.9 221.3 501.0 215.0 501.0 201.6C501.0 188.5 490.6 183.7 472.2 180.6C465.5 179.4 458.8 177.0 458.6 171.5C458.5 166.1 463.5 162.8 469.8 162.8C476.2 162.8 482.3 166.9 483.5 173.6ZM508.0 239.0L524.7 239.0L524.7 210.5C528.6 217.6 535.4 221.3 544.5 221.3C564.1 221.3 573.6 205.3 573.6 185.8C573.6 166.4 564.1 150.4 544.5 150.4C534.9 150.4 527.9 154.4 524.2 161.6L523.8 151.9L508.0 151.9ZM523.4 185.8C523.4 174.3 528.4 163.7 539.9 163.7C551.3 163.7 556.4 174.3 556.4 185.8C556.4 197.5 551.4 208.0 539.9 208.0C528.4 208.0 523.4 197.5 523.4 185.8ZM577.9 185.8C577.9 207.3 591.2 221.3 611.5 221.3C626.2 221.3 638.5 213.2 642.4 200.2L625.5 198.9C623.1 204.8 617.6 208.2 611.5 208.2C601.9 208.2 596.0 201.6 595.2 190.3L643.5 190.3L643.3 186.2C643.1 162.2 628.9 150.4 611.5 150.4C591.2 150.4 577.9 164.3 577.9 185.8ZM595.5 179.3C596.7 169.5 602.5 163.4 611.5 163.4C618.6 163.4 625.0 167.8 626.3 179.3ZM695.8 176.9L712.8 176.0C711.0 160.1 697.6 150.4 681.3 150.4C661.1 150.4 647.8 164.3 647.8 185.8C647.8 207.3 661.1 221.3 681.3 221.3C698.1 221.3 711.4 211.2 713.3 194.8L696.2 194.0C694.9 203.1 688.9 207.9 681.3 207.9C670.8 207.9 664.8 199.8 664.8 185.8C664.8 171.9 670.8 163.8 681.3 163.8C688.5 163.8 694.5 168.4 695.8 176.9ZM724.0 136.6L724.0 151.9L713.3 151.9L713.3 164.7L724.0 164.7L724.0 198.9C724.0 212.7 731.5 219.8 745.5 219.8L758.5 219.8L758.5 206.8L748.3 206.8C743.2 206.8 740.6 204.1 740.6 198.9L740.6 164.7L758.5 164.7L758.5 151.9L740.6 151.9L740.6 136.6ZM765.3 151.9L765.3 219.8L782.0 219.8L782.0 181.1C782.0 170.2 786.4 164.8 797.3 164.8L803.8 164.8L803.8 151.9L797.4 151.9C788.7 151.9 783.7 156.3 781.2 165.1L780.8 151.9ZM806.9 172.5L823.8 173.6C825.5 166.1 830.1 162.3 837.2 162.3C846.1 162.3 850.4 167.3 850.6 177.5L831.5 181.4C815.6 184.6 805.9 188.8 805.9 202.0C805.9 214 816.6 221.3 830.2 221.3C842.0 221.3 849.7 216.2 852.7 209.5C854.0 220.0 864.9 219.9 870.1 219.9L874.0 219.8L874.0 207.7L871.4 207.7C868.9 207.7 867.2 206.7 867.2 202.7L867.2 179.6C867.2 160.5 856.8 150.4 837.2 150.4C820.6 150.4 809.6 158.6 806.9 172.5ZM822.9 201.5C822.9 193.6 829.4 192.8 838.0 191.1L850.8 188.8L850.8 189.6C850.8 203.0 843.9 209.6 834.7 209.6C826.8 209.6 822.9 206.1 822.9 201.5Z "/></svg>