<svg width="1200" height="400" viewBox="0 0 1200 400" xmlns="http://www.w3.org/2000/svg"><defs><pattern id="satori_pattern_id_0" x="0" y="0" width="1" height="1" patternUnits="objectBoundingBox"><linearGradient id="satori_biid_0" x1="-0.1" y1="0.7" x2="1.1" y2="0.3" spreadMethod="pad"><stop offset="0%" stop-color="rgba(168,132,237,1)"/><stop offset="100%" stop-color="rgba(145,215,184,1)"/></linearGradient><rect x="0" y="0" width="1200" height="400" fill="url(#satori_biid_0)"/></pattern></defs><mask id="satori_om-id"><rect x="0" y="0" width="1200" height="400" fill="#fff"/></mask><path x="0" y="0" width="1200" height="400" fill="url(#satori_pattern_id_0)" d="M16,0 h1168 a16,16 0 0 1 16,16 v368 a16,16 0 0 1 -16,16 h-1168 a16,16 0 0 1 -16,-16 v-368 a16,16 0 0 1 16,-16"/><mask id="satori_om-id-0"><rect x="409" y="122" width="383" height="34" fill="#fff"/></mask><path fill="white" d="M416.2 149.6L416.2 131.6L410.2 131.6L410.2 128.3L425.8 128.3L425.8 131.6L419.8 131.6L419.8 149.6L416.2 149.6ZM429.2 149.6L429.2 128.3L432.8 128.3L432.8 135.7Q433.4 134.4 434.6 133.8Q435.7 133.2 437.2 133.2L437.2 133.2Q439.6 133.2 440.9 134.8Q442.2 136.4 442.2 139.2L442.2 139.2L442.2 149.6L438.7 149.6L438.7 140.1Q438.7 138.0 438.0 137.1Q437.4 136.2 436.0 136.2L436.0 136.2Q434.5 136.2 433.6 137.3Q432.8 138.4 432.8 140.3L432.8 140.3L432.8 149.6L429.2 149.6ZM452.9 150.0Q450.7 150.0 449.0 148.9Q447.2 147.9 446.3 146.0Q445.4 144.1 445.4 141.6L445.4 141.6Q445.4 139.0 446.3 137.1Q447.2 135.2 448.9 134.2Q450.6 133.2 452.9 133.2L452.9 133.2Q455.0 133.2 456.6 134.2Q458.3 135.1 459.3 137.0Q460.3 138.9 460.3 141.7L460.3 141.7L460.3 142.5L449.2 142.5Q449.3 144.6 450.3 145.6Q451.3 146.7 452.9 146.7L452.9 146.7Q454.1 146.7 455.0 146.1Q455.8 145.5 456.2 144.4L456.2 144.4L460.0 144.7Q459.2 147.1 457.4 148.5Q455.5 150.0 452.9 150.0L452.9 150.0ZM456.4 140.0Q456.2 138.2 455.2 137.3Q454.3 136.4 452.9 136.4L452.9 136.4Q451.4 136.4 450.5 137.3Q449.5 138.2 449.2 140.0L449.2 140.0L456.4 140.0Z M486.4 150.0Q484.5 150.0 483.0 148.9Q481.6 147.9 480.8 146Q480.1 144.1 480.1 141.6L480.1 141.6Q480.1 139.0 480.8 137.1Q481.6 135.2 483.0 134.2Q484.5 133.2 486.4 133.2L486.4 133.2Q487.9 133.2 489.1 133.9Q490.3 134.6 491.0 135.8L491.0 135.8L491.0 128.3L494.6 128.3L494.6 149.6L491.2 149.6L491.1 147.2Q490.4 148.5 489.2 149.3Q488.0 150.0 486.4 150.0L486.4 150.0ZM487.3 146.7Q489.0 146.7 490 145.4Q491.0 144.0 491.0 141.6L491.0 141.6Q491.0 139.1 490.0 137.8Q489.0 136.4 487.3 136.4L487.3 136.4Q485.7 136.4 484.7 137.8Q483.8 139.1 483.8 141.6L483.8 141.6Q483.8 144.0 484.7 145.4Q485.7 146.7 487.3 146.7L487.3 146.7ZM505.1 150.0Q502.9 150.0 501.2 148.9Q499.4 147.9 498.5 146.0Q497.6 144.1 497.6 141.6L497.6 141.6Q497.6 139.0 498.5 137.1Q499.4 135.2 501.1 134.2Q502.8 133.2 505.1 133.2L505.1 133.2Q507.2 133.2 508.8 134.2Q510.5 135.1 511.5 137.0Q512.5 138.9 512.5 141.7L512.5 141.7L512.5 142.5L501.4 142.5Q501.5 144.6 502.5 145.6Q503.5 146.7 505.1 146.7L505.1 146.7Q506.4 146.7 507.2 146.1Q508.0 145.5 508.4 144.4L508.4 144.4L512.2 144.7Q511.4 147.1 509.6 148.5Q507.7 150.0 505.1 150.0L505.1 150.0ZM508.6 140.0Q508.4 138.2 507.4 137.3Q506.5 136.4 505.1 136.4L505.1 136.4Q503.6 136.4 502.7 137.3Q501.7 138.2 501.4 140.0L501.4 140.0L508.6 140.0ZM522.7 150.0Q520.4 150.0 518.7 148.9Q517 147.9 516.1 146.0Q515.1 144.1 515.1 141.6L515.1 141.6Q515.1 139.0 516.1 137.1Q517 135.2 518.7 134.2Q520.4 133.2 522.7 133.2L522.7 133.2Q525.5 133.2 527.5 134.8Q529.4 136.5 529.8 139.3L529.8 139.3L526.1 139.5Q525.8 138.0 524.9 137.2Q524.0 136.4 522.7 136.4L522.7 136.4Q520.9 136.4 519.9 137.8Q518.9 139.2 518.9 141.6L518.9 141.6Q518.9 144.0 519.9 145.4Q520.9 146.7 522.7 146.7L522.7 146.7Q524.0 146.7 524.9 145.9Q525.9 145.0 526.2 143.4L526.2 143.4L529.9 143.6Q529.4 146.5 527.5 148.2Q525.5 150.0 522.7 150.0L522.7 150.0ZM539.8 150.0Q537.6 150.0 535.9 148.9Q534.2 147.9 533.2 146.0Q532.3 144.1 532.3 141.6L532.3 141.6Q532.3 139.0 533.2 137.1Q534.2 135.2 535.9 134.2Q537.6 133.2 539.8 133.2L539.8 133.2Q542.0 133.2 543.7 134.2Q545.4 135.2 546.4 137.1Q547.3 139.0 547.3 141.6L547.3 141.6Q547.3 144.1 546.4 146.0Q545.4 147.9 543.7 148.9Q542.0 150.0 539.8 150.0L539.8 150.0ZM539.8 146.7Q541.6 146.7 542.6 145.4Q543.5 144.0 543.5 141.6L543.5 141.6Q543.5 139.1 542.6 137.8Q541.6 136.4 539.8 136.4L539.8 136.4Q538.0 136.4 537.0 137.8Q536.0 139.1 536.0 141.6L536.0 141.6Q536.0 144.0 537.0 145.4Q538.0 146.7 539.8 146.7L539.8 146.7ZM550.7 149.6L550.7 146.5L554.6 146.5L554.6 136.6L550.7 136.6L550.7 133.5L557.0 133.5L557.2 136.5Q558.1 133.5 561.1 133.5L561.1 133.5L564.8 133.5L564.8 136.7L561.5 136.7Q558.1 136.7 558.1 140.2L558.1 140.2L558.1 146.5L563.0 146.5L563.0 149.6L550.7 149.6ZM572.5 150.0Q571.0 150.0 569.8 149.4Q568.5 148.8 567.8 147.8Q567.0 146.8 567.0 145.3L567.0 145.3Q567.0 143.4 568.3 142.3Q569.6 141.1 571.9 140.6L571.9 140.6L576.8 139.6Q576.8 136.3 574.0 136.3L574.0 136.3Q571.5 136.3 571.0 138.6L571.0 138.6L567.3 138.4Q567.8 136.0 569.5 134.6Q571.3 133.2 574.0 133.2L574.0 133.2Q577.1 133.2 578.8 134.9Q580.4 136.6 580.4 139.8L580.4 139.8L580.4 145.5Q580.4 146.1 580.7 146.3Q580.9 146.5 581.4 146.5L581.4 146.5L582.3 146.5L582.3 149.6Q581.8 149.7 580.8 149.7L580.8 149.7Q577.9 149.7 577.3 147.2L577.3 147.2Q576.8 148.5 575.5 149.2Q574.2 150.0 572.5 150.0L572.5 150.0ZM573.0 147.0Q574.7 147.0 575.8 146Q576.8 145.0 576.8 143.4L576.8 143.4L576.8 142.3L572.9 143.1Q571.8 143.3 571.3 143.8Q570.8 144.3 570.8 145.1L570.8 145.1Q570.8 146.0 571.3 146.5Q571.9 147.0 573.0 147.0L573.0 147.0ZM594.2 149.6Q591.6 149.6 590.3 148.4Q589.1 147.1 589.1 144.6L589.1 144.6L589.1 136.6L584.3 136.6L584.3 133.5L589.1 133.5L589.1 129.6L592.7 129.6L592.7 133.5L599.0 133.5L599.0 136.6L592.7 136.6L592.7 144.3Q592.7 145.5 593.2 146Q593.7 146.5 594.8 146.5L594.8 146.5L599.0 146.5L599.0 149.6L594.2 149.6ZM609.4 150.0Q607.2 150.0 605.5 148.9Q603.8 147.9 602.8 146.0Q601.9 144.1 601.9 141.6L601.9 141.6Q601.9 139.0 602.8 137.1Q603.8 135.2 605.5 134.2Q607.2 133.2 609.4 133.2L609.4 133.2Q611.6 133.2 613.3 134.2Q615.0 135.2 616.0 137.1Q616.9 139.0 616.9 141.6L616.9 141.6Q616.9 144.1 616.0 146.0Q615.0 147.9 613.3 148.9Q611.6 150.0 609.4 150.0L609.4 150.0ZM609.4 146.7Q611.2 146.7 612.2 145.4Q613.1 144.0 613.1 141.6L613.1 141.6Q613.1 139.1 612.2 137.8Q611.2 136.4 609.4 136.4L609.4 136.4Q607.6 136.4 606.6 137.8Q605.6 139.1 605.6 141.6L605.6 141.6Q605.6 144.0 606.6 145.4Q607.6 146.7 609.4 146.7L609.4 146.7ZM620.3 149.6L620.3 146.5L624.2 146.5L624.2 136.6L620.3 136.6L620.3 133.5L626.6 133.5L626.8 136.5Q627.7 133.5 630.7 133.5L630.7 133.5L634.4 133.5L634.4 136.7L631.1 136.7Q627.7 136.7 627.7 140.2L627.7 140.2L627.7 146.5L632.6 146.5L632.6 149.6L620.3 149.6Z M660.8 133.2Q660.8 132.3 660.3 131.8Q659.8 131.4 658.9 131.4L658.9 131.4L655.2 131.4L655.2 128.3L659.1 128.3Q664.3 128.3 664.3 133.5L664.3 133.5L664.3 146.5L669.8 146.5L669.8 149.6L654.6 149.6L654.6 146.5L660.8 146.5L660.8 133.2ZM672.0 149.6L672.0 146.5L678.3 146.5L678.3 136.6L672.3 136.6L672.3 133.5L681.8 133.5L681.8 146.5L687.2 146.5L687.2 149.6L672.0 149.6ZM678.1 131.5L678.1 128.2L681.8 128.2L681.8 131.5L678.1 131.5ZM697.6 150.0Q696.0 150.0 694.8 149.3Q693.6 148.5 692.9 147.2L692.9 147.2L692.8 149.6L689.4 149.6L689.4 128.3L693.0 128.3L693.0 135.8Q693.7 134.6 694.9 133.9Q696.1 133.2 697.6 133.2L697.6 133.2Q699.5 133.2 701.0 134.2Q702.4 135.2 703.2 137.1Q703.9 139.0 703.9 141.6L703.9 141.6Q703.9 144.1 703.2 146Q702.4 147.9 701.0 148.9Q699.5 150.0 697.6 150.0L697.6 150.0ZM696.7 146.7Q698.4 146.7 699.3 145.4Q700.2 144.0 700.2 141.6L700.2 141.6Q700.2 139.1 699.3 137.8Q698.4 136.4 696.7 136.4L696.7 136.4Q695.0 136.4 694.0 137.8Q693.0 139.1 693.0 141.6L693.0 141.6Q693.0 144.0 694 145.4Q695.0 146.7 696.7 146.7L696.7 146.7ZM707.3 149.6L707.3 146.5L711.2 146.5L711.2 136.6L707.3 136.6L707.3 133.5L713.6 133.5L713.8 136.5Q714.7 133.5 717.7 133.5L717.7 133.5L721.4 133.5L721.4 136.7L718.1 136.7Q714.7 136.7 714.7 140.2L714.7 140.2L714.7 146.5L719.6 146.5L719.6 149.6L707.3 149.6ZM729.1 150.0Q727.6 150.0 726.4 149.4Q725.1 148.8 724.4 147.8Q723.6 146.8 723.6 145.3L723.6 145.3Q723.6 143.4 724.9 142.3Q726.2 141.1 728.5 140.6L728.5 140.6L733.4 139.6Q733.4 136.3 730.6 136.3L730.6 136.3Q728.1 136.3 727.6 138.6L727.6 138.6L723.9 138.4Q724.4 136.0 726.1 134.6Q727.9 133.2 730.6 133.2L730.6 133.2Q733.7 133.2 735.4 134.9Q737.0 136.6 737.0 139.8L737.0 139.8L737.0 145.5Q737.0 146.1 737.3 146.3Q737.5 146.5 738.0 146.5L738.0 146.5L738.9 146.5L738.9 149.6Q738.4 149.7 737.4 149.7L737.4 149.7Q734.5 149.7 733.9 147.2L733.9 147.2Q733.4 148.5 732.1 149.2Q730.8 150.0 729.1 150.0L729.1 150.0ZM729.6 147.0Q731.3 147.0 732.4 146Q733.4 145.0 733.4 143.4L733.4 143.4L733.4 142.3L729.5 143.1Q728.4 143.3 727.9 143.8Q727.4 144.3 727.4 145.1L727.4 145.1Q727.4 146.0 727.9 146.5Q728.5 147.0 729.6 147.0L729.6 147.0ZM742.1 149.6L742.1 146.5L746.0 146.5L746.0 136.6L742.1 136.6L742.1 133.5L748.4 133.5L748.6 136.5Q749.5 133.5 752.5 133.5L752.5 133.5L756.2 133.5L756.2 136.7L752.9 136.7Q749.5 136.7 749.5 140.2L749.5 140.2L749.5 146.5L754.4 146.5L754.4 149.6L742.1 149.6ZM760.4 154.1L760.4 151.0L762.6 151.0Q763.4 151.0 763.8 150.8Q764.2 150.6 764.5 150.0L764.5 150.0L765.0 148.8L763.9 148.8L758.2 133.5L762.1 133.5L766.2 145.3L770.0 133.5L773.9 133.5L767.7 151.0Q767.1 152.7 766.0 153.4Q764.9 154.1 763.1 154.1L763.1 154.1L760.4 154.1ZM781.2 149.6L781.2 145.3L785.6 145.3L785.6 149.6L781.2 149.6Z "/><mask id="satori_om-id-1"><rect x="325" y="156" width="551" height="137" fill="#fff"/></mask><path fill="white" d="M408.3 274.1Q393.6 279.6 379.5 279.6L379.5 279.6Q365.2 279.6 353.9 274.1Q342.5 268.6 336.0 258.4Q329.6 248.2 329.6 234.6L329.6 234.6Q329.6 219.2 337.7 207.1Q345.8 194.9 359.4 188.0Q373.1 181.2 389.2 181.2L389.2 181.2Q403.2 181.2 414.2 186.7Q425.2 192.2 431.4 202.0Q437.6 211.7 437.6 223.8L437.6 223.8Q437.6 233.5 434.0 240.8Q430.5 248.2 424.5 252.0Q418.6 255.8 411.5 255.8L411.5 255.8Q405.9 255.8 401.7 253.1Q397.6 250.4 396.4 245.4L396.4 245.4Q394.2 250.4 389.5 253.4Q384.8 256.3 378.9 256.3L378.9 256.3Q368.7 256.3 362.8 250.3Q356.9 244.2 356.9 234.8L356.9 234.8Q356.9 226.8 360.2 220.1Q363.5 213.5 369.6 209.6Q375.6 205.7 383.6 205.7L383.6 205.7Q387.9 205.7 391.4 207.2Q395.0 208.8 397.1 211.7L397.1 211.7L397.5 207.6L409.5 207.6L407.3 232.4Q407.1 235.1 407.1 237.1L407.1 237.1Q407.1 240.6 408.3 243.1Q409.6 245.5 412.4 245.5L412.4 245.5Q414.6 245.5 416.9 243.4Q419.2 241.2 420.6 236.9Q422.1 232.7 422.1 226.7L422.1 226.7Q422.1 217.4 417.9 210.4Q413.8 203.3 406.2 199.4Q398.6 195.5 388.4 195.5L388.4 195.5Q376.7 195.5 367.5 200.4Q358.4 205.3 353.1 214.0Q347.9 222.6 347.9 233.4L347.9 233.4Q347.9 248.3 356.9 256.6Q365.9 265.0 381.2 265.0L381.2 265.0Q392.7 265.0 405.0 260.2L405.0 260.2L408.3 274.1ZM382.7 244.6Q388 244.6 391 240.2Q394 235.9 394 229.8L394 229.8Q394 224.6 391.7 221.5Q389.4 218.4 385 218.4L385 218.4Q380.0 218.4 376.8 222.7Q373.7 227.0 373.7 233.3L373.7 233.3Q373.7 238.3 376 241.4Q378.3 244.6 382.7 244.6L382.7 244.6ZM472.5 267.8Q457.4 267.8 449.3 261.9Q441.2 256.0 440.4 246.1L440.4 246.1L461.2 245.4Q462.0 249.7 464.8 251.9Q467.6 254.0 472.6 254.0L472.6 254.0Q481.4 254.0 481.4 248.5L481.4 248.5Q481.4 245.6 479.0 244.1Q476.7 242.6 469.5 241.4L469.5 241.4Q458.8 239.8 452.9 237.3Q447.0 234.8 444.5 231.1Q442 227.4 442 221.4L442 221.4Q442 211.7 449.7 206.0Q457.4 200.4 472.1 200.4L472.1 200.4Q485.9 200.4 493.5 206.5Q501.2 212.5 502.4 223.1L502.4 223.1L481.8 223.8Q481.2 219.2 478.7 216.7Q476.1 214.2 471.9 214.2L471.9 214.2Q467.8 214.2 465.5 215.9Q463.2 217.7 463.2 220.7L463.2 220.7Q463.2 223.8 465.6 225.3Q467.9 226.8 474.0 227.8L474.0 227.8Q489.5 229.9 496.1 234.7Q502.6 239.4 502.6 248.0L502.6 248.0Q502.6 257.5 494.6 262.7Q486.6 267.8 472.5 267.8L472.5 267.8ZM506.9 284.4L506.9 201.8L527.0 201.8L527.2 211.3Q530.0 206.0 534.9 203.2Q539.8 200.4 546.2 200.4L546.2 200.4Q554.7 200.4 560.8 204.7Q566.9 209.0 570.0 216.7Q573.2 224.4 573.2 234.1L573.2 234.1Q573.2 243.8 570.0 251.5Q566.8 259.2 560.7 263.5Q554.6 267.8 545.9 267.8L545.9 267.8Q540.0 267.8 535.2 265.0Q530.3 262.2 527.6 257.3L527.6 257.3L527.6 284.4L506.9 284.4ZM539.7 252.6Q545.3 252.6 548.6 247.6Q551.9 242.6 551.9 234.1L551.9 234.1Q551.9 225.6 548.6 220.6Q545.3 215.6 539.7 215.6L539.7 215.6Q533.9 215.6 530.7 220.4Q527.6 225.1 527.6 234.1L527.6 234.1Q527.6 243.1 530.7 247.9Q533.9 252.6 539.7 252.6L539.7 252.6ZM608.2 267.8Q598.1 267.8 590.5 263.6Q582.9 259.4 578.7 251.8Q574.6 244.2 574.6 234.1L574.6 234.1Q574.6 224.0 578.7 216.4Q582.9 208.8 590.4 204.6Q598 200.4 608.1 200.4L608.1 200.4Q618.0 200.4 625.4 204.7Q632.8 208.9 636.8 216.9Q640.7 224.9 640.7 235.7L640.7 235.7L640.7 239.5L595.8 239.5Q596.1 246.1 599.4 249.5Q602.8 252.8 608.6 252.8L608.6 252.8Q617.1 252.8 619.2 245.9L619.2 245.9L639.9 247.1Q637.2 257.0 628.8 262.4Q620.4 267.8 608.2 267.8L608.2 267.8ZM620.0 227.8Q619.6 221.5 616.5 218.3Q613.4 215.0 608.1 215.0L608.1 215.0Q602.9 215.0 599.6 218.4Q596.3 221.8 595.8 227.8L595.8 227.8L620.0 227.8ZM676.1 267.8Q666.0 267.8 658.4 263.6Q650.7 259.4 646.5 251.8Q642.3 244.2 642.3 234.1L642.3 234.1Q642.3 224.0 646.5 216.4Q650.7 208.8 658.4 204.6Q666.0 200.4 676.1 200.4L676.1 200.4Q689.7 200.4 698.7 207.4Q707.7 214.4 709.0 226.6L709.0 226.6L687.8 227.5Q686.9 221.8 683.9 218.8Q680.9 215.8 676.1 215.8L676.1 215.8Q670.0 215.8 666.8 220.6Q663.5 225.4 663.5 234.1L663.5 234.1Q663.5 243.0 666.8 247.8Q670.0 252.6 676.1 252.6L676.1 252.6Q681.0 252.6 684.1 249.5Q687.2 246.5 687.8 240.2L687.8 240.2L709.0 241.0Q708.3 249.1 704.0 255.2Q699.6 261.2 692.4 264.5Q685.2 267.8 676.1 267.8L676.1 267.8ZM738.4 266.4Q728.0 266.4 723.1 261.5Q718.2 256.6 718.2 246.0L718.2 246.0L718.2 216.7L707.6 216.7L707.6 201.8L718.2 201.8L718.2 186.7L738.9 186.7L738.9 201.8L755.8 201.8L755.8 216.7L738.9 216.7L738.9 243.4Q738.9 247.9 740.8 249.7Q742.7 251.5 746.9 251.5L746.9 251.5L755.8 251.5L755.8 266.4L738.4 266.4ZM760.8 266.4L760.8 201.8L780.6 201.8L781.1 215.0Q783.0 208.2 786.8 205.0Q790.5 201.8 796.5 201.8L796.5 201.8L802.1 201.8L802.1 218.5L796.4 218.5Q788.6 218.5 785.0 221.3Q781.5 224.2 781.5 231.0L781.5 231.0L781.5 266.4L760.8 266.4ZM825.9 267.8Q815.4 267.8 809.1 263.2Q802.8 258.5 802.8 250.2L802.8 250.2Q802.8 241.9 808.2 237.2Q813.5 232.4 824.4 230.2L824.4 230.2L844.5 226.1Q844.5 220.4 842.0 217.5Q839.6 214.6 834.9 214.6L834.9 214.6Q825.9 214.6 824.4 223.1L824.4 223.1L803.9 222.4Q805.8 211.3 813.8 205.9Q821.7 200.4 834.9 200.4L834.9 200.4Q865.1 200.4 865.1 227.6L865.1 227.6L865.1 248.0Q865.1 250.9 866.0 251.9Q866.9 253.0 868.8 253.0L868.8 253.0L870.4 253.0L870.4 266.4Q869.1 266.8 867.0 267Q865.0 267.2 863.1 267.2L863.1 267.2Q850.6 267.2 848.3 256.4L848.3 256.4Q845.7 261.8 840.0 264.8Q834.4 267.8 825.9 267.8L825.9 267.8ZM831.2 254.4Q837.2 254.4 840.8 250.9Q844.5 247.3 844.5 240.8L844.5 240.8L844.5 238.2L831.9 241.1Q824.1 242.8 824.1 248.3L824.1 248.3Q824.1 251.2 825.9 252.8Q827.7 254.4 831.2 254.4L831.2 254.4Z "/></svg>